<mxfile host="app.diagrams.net" modified="2023-09-10T11:16:41.245Z" agent="Mozilla/5.0 (Windows NT 10.0; Win64; x64) AppleWebKit/537.36 (KHTML, like Gecko) Chrome/116.0.0.0 Safari/537.36" etag="564AXsC5fEbNf6N8CdYi" version="21.7.4" type="device">
  <diagram name="Pagina-1" id="YYqr6IQnQ94h268x4bjy">
    <mxGraphModel dx="2074" dy="1152" grid="1" gridSize="10" guides="1" tooltips="1" connect="1" arrows="1" fold="1" page="1" pageScale="1" pageWidth="1169" pageHeight="827" math="0" shadow="0">
      <root>
        <mxCell id="0" />
        <mxCell id="1" parent="0" />
        <mxCell id="qa_eybpKKDNYe3BtcfvJ-3" style="edgeStyle=orthogonalEdgeStyle;rounded=0;orthogonalLoop=1;jettySize=auto;html=1;entryX=0;entryY=0.5;entryDx=0;entryDy=0;" edge="1" parent="1" source="qa_eybpKKDNYe3BtcfvJ-1" target="qa_eybpKKDNYe3BtcfvJ-2">
          <mxGeometry relative="1" as="geometry" />
        </mxCell>
        <mxCell id="qa_eybpKKDNYe3BtcfvJ-6" value="DataSet" style="edgeLabel;html=1;align=center;verticalAlign=middle;resizable=0;points=[];" vertex="1" connectable="0" parent="qa_eybpKKDNYe3BtcfvJ-3">
          <mxGeometry x="-0.1" relative="1" as="geometry">
            <mxPoint as="offset" />
          </mxGeometry>
        </mxCell>
        <mxCell id="qa_eybpKKDNYe3BtcfvJ-1" value="Mapping" style="rounded=1;whiteSpace=wrap;html=1;fillColor=#dae8fc;strokeColor=#6c8ebf;" vertex="1" parent="1">
          <mxGeometry x="40" y="40" width="120" height="60" as="geometry" />
        </mxCell>
        <mxCell id="qa_eybpKKDNYe3BtcfvJ-2" value="Writing" style="rounded=1;whiteSpace=wrap;html=1;fillColor=#dae8fc;strokeColor=#6c8ebf;" vertex="1" parent="1">
          <mxGeometry x="280" y="40" width="120" height="60" as="geometry" />
        </mxCell>
      </root>
    </mxGraphModel>
  </diagram>
</mxfile>
